<svg width="128" height="128" viewBox="0 0 128 128" fill="none" xmlns="http://www.w3.org/2000/svg">
<path d="M64 0C28.6596 0 0 28.6596 0 64C0 99.3404 28.6596 128 64 128C99.3404 128 128 99.3404 128 64C128 28.6596 99.3404 0 64 0ZM67.3109 78.5885C67.3109 88.1367 61.0439 94.2559 51.2887 94.2559V86.7769C56.1219 86.7769 59.4771 83.5843 59.4771 78.7363V46.5589H67.3109V78.5885ZM63.394 40.1441C60.5413 40.1441 58.3982 38.0157 58.3982 35.1631C58.3982 32.3104 60.5413 30.182 63.394 30.182C66.2467 30.182 68.3751 32.3104 68.3751 35.1631C68.3751 38.0157 66.2319 40.1441 63.394 40.1441ZM102.636 76.5931C99.503 79.5935 95.2166 81.4411 90.4573 81.4411C80.7021 81.4411 73.0162 73.7552 73.0162 64C73.0162 54.2448 80.7021 46.5589 90.4573 46.5589H107.898V54.3778H90.4573C85.1215 54.3778 80.8351 58.5903 80.8351 64C80.8351 69.4097 85.1215 73.6074 90.4573 73.6074C95.7931 73.6074 100.065 69.4097 100.065 64V59.3737H107.898V68.7741C107.898 71.7598 109.746 73.6074 112.879 73.6074V81.4411C108.549 81.4411 104.839 79.5935 102.636 76.5931Z" fill="#8C52FE"/>
</svg>
